<svg width="1200" height="630" viewBox="0 0 1200 630" fill="none" xmlns="http://www.w3.org/2000/svg">
  <rect width="1200" height="630" fill="#F7F9FC"/>
  <rect x="48" y="48" width="1104" height="534" rx="36" fill="url(#bg)"/>
  <rect x="92" y="92" width="1016" height="446" rx="28" fill="white" fill-opacity="0.76" stroke="#DDE6F0"/>
  <path d="M0 0H1200V630H0V0Z" fill="url(#grid)" fill-opacity="0.35"/>
  <circle cx="973" cy="124" r="142" fill="#DCEEFF"/>
  <circle cx="1020" cy="495" r="175" fill="#E9FFF2"/>
  <circle cx="197" cy="518" r="124" fill="#EEF4FF"/>
  <text x="112" y="186" fill="#0071E3" font-family="Arial, Helvetica, sans-serif" font-size="24" font-weight="700">AirBit</text>
  <text x="112" y="278" fill="#111827" font-family="Arial, Helvetica, sans-serif" font-size="72" font-weight="700">企业级 AI 基础设施</text>
  <text x="112" y="352" fill="#4B5563" font-family="Arial, Helvetica, sans-serif" font-size="34" font-weight="500">连接 AI 网关、MCP 网关、安全护栏、集成平台与行业解决方案</text>
  <g filter="url(#cardShadow)">
    <rect x="112" y="420" width="198" height="68" rx="18" fill="#0071E3"/>
    <text x="148" y="462" fill="white" font-family="Arial, Helvetica, sans-serif" font-size="26" font-weight="700">AirBit Platform</text>
  </g>
  <g filter="url(#cardShadow)">
    <rect x="766" y="162" width="258" height="192" rx="24" fill="white"/>
    <rect x="792" y="196" width="94" height="18" rx="9" fill="#E8F2FF"/>
    <rect x="792" y="230" width="172" height="18" rx="9" fill="#EEF2F7"/>
    <rect x="792" y="264" width="134" height="18" rx="9" fill="#EEF2F7"/>
    <rect x="792" y="302" width="154" height="22" rx="11" fill="#0071E3" fill-opacity="0.12"/>
  </g>
  <g filter="url(#cardShadow)">
    <rect x="870" y="386" width="180" height="110" rx="22" fill="white"/>
    <rect x="896" y="416" width="88" height="14" rx="7" fill="#DCFCE7"/>
    <rect x="896" y="446" width="122" height="14" rx="7" fill="#EEF2F7"/>
  </g>
  <defs>
    <linearGradient id="bg" x1="48" y1="48" x2="1152" y2="582" gradientUnits="userSpaceOnUse">
      <stop stop-color="#F4F8FF"/>
      <stop offset="1" stop-color="#FDFEFE"/>
    </linearGradient>
    <pattern id="grid" width="40" height="40" patternUnits="userSpaceOnUse">
      <path d="M40 0H0V40" stroke="#C8D4E3" stroke-width="1"/>
    </pattern>
    <filter id="cardShadow" x="96" y="148" width="972" height="366" filterUnits="userSpaceOnUse" color-interpolation-filters="sRGB">
      <feFlood flood-opacity="0" result="BackgroundImageFix"/>
      <feColorMatrix in="SourceAlpha" type="matrix" values="0 0 0 0 0 0 0 0 0 0 0 0 0 0 0 0 0 0 127 0" result="hardAlpha"/>
      <feOffset dy="8"/>
      <feGaussianBlur stdDeviation="10"/>
      <feColorMatrix type="matrix" values="0 0 0 0 0.09 0 0 0 0 0.11 0 0 0 0 0.16 0 0 0 0.08 0"/>
      <feBlend mode="normal" in2="BackgroundImageFix" result="effect1_dropShadow_1_1"/>
      <feBlend mode="normal" in="SourceGraphic" in2="effect1_dropShadow_1_1" result="shape"/>
    </filter>
  </defs>
</svg>
